<?xml version="1.0" encoding="UTF-8" standalone="no"?><svg xmlns="http://www.w3.org/2000/svg" xmlns:xlink="http://www.w3.org/1999/xlink" style="isolation:isolate" viewBox="0 0 100 100" width="100pt" height="100pt"><defs><clipPath id="_clipPath_bc0ZMDCYX9HBaxzwzcmstufpXgnXFk4f"><rect width="100" height="100"/></clipPath></defs><g clip-path="url(#_clipPath_bc0ZMDCYX9HBaxzwzcmstufpXgnXFk4f)"><rect width="100" height="100" style="fill:rgb(0,0,0)" fill-opacity="0"/><path d=" M 14.706 20.588 C 6.581 20.588 0 27.169 0 35.294 L 0 64.706 C 0 72.831 6.581 79.412 14.706 79.412 L 85.294 79.412 C 93.419 79.412 100 72.831 100 64.706 L 100 35.294 C 100 27.169 93.419 20.588 85.294 20.588 L 14.706 20.588 Z  M 85.294 32.353 C 86.912 32.353 88.235 33.676 88.235 35.294 L 88.235 64.706 C 88.235 66.324 86.912 67.647 85.294 67.647 L 14.706 67.647 C 13.088 67.647 11.765 66.324 11.765 64.706 L 11.765 35.294 C 11.765 33.676 13.088 32.353 14.706 32.353 L 85.294 32.353 Z " fill-rule="evenodd" fill="rgb(152,81,132)"/><path d=" M 52.941 38.235 L 17.647 38.235 L 17.647 61.765 L 52.941 61.765 L 52.941 38.235 Z " fill="rgb(251,185,69)"/></g></svg>